<?xml version="1.0" encoding="UTF-8" standalone="no"?>
<svg
   xmlns:dc="http://purl.org/dc/elements/1.1/"
   xmlns:cc="http://creativecommons.org/ns#"
   xmlns:rdf="http://www.w3.org/1999/02/22-rdf-syntax-ns#"
   xmlns:svg="http://www.w3.org/2000/svg"
   xmlns="http://www.w3.org/2000/svg"
   xmlns:sodipodi="http://sodipodi.sourceforge.net/DTD/sodipodi-0.dtd"
   xmlns:inkscape="http://www.inkscape.org/namespaces/inkscape"
   enable-background="new 0 0 504 504"
   id="Layer_1"
   version="1.1"
   viewBox="0 0 270 270"
   xml:space="preserve"
   sodipodi:docname="liferay-logo.svg"
   width="270"
   height="270"
   inkscape:version="0.92.1 r"><metadata
     id="metadata35"><rdf:RDF><cc:Work
         rdf:about=""><dc:format>image/svg+xml</dc:format><dc:type
           rdf:resource="http://purl.org/dc/dcmitype/StillImage" /><dc:title></dc:title></cc:Work></rdf:RDF></metadata><defs
     id="defs33" /><sodipodi:namedview
     pagecolor="#ffffff"
     bordercolor="#666666"
     borderopacity="1"
     objecttolerance="10"
     gridtolerance="10"
     guidetolerance="10"
     inkscape:pageopacity="0"
     inkscape:pageshadow="2"
     inkscape:window-width="2560"
     inkscape:window-height="1043"
     id="namedview31"
     showgrid="false"
     inkscape:snap-bbox="true"
     inkscape:zoom="0.46825397"
     inkscape:cx="256.27119"
     inkscape:cy="134.24183"
     inkscape:window-x="1920"
     inkscape:window-y="0"
     inkscape:window-maximized="1"
     inkscape:current-layer="Layer_1" /><rect
     style="fill:#3765af;fill-opacity:1;stroke:none;stroke-width:1.32994854;stroke-linecap:butt;stroke-linejoin:bevel;stroke-miterlimit:4;stroke-dasharray:none;stroke-opacity:1"
     id="rect4512"
     width="256.92636"
     height="257.53976"
     x="7.807991"
     y="7.1945801" /><g
     id="g28"
     transform="translate(-120,-120)"><path
       d="m 252.6,160.6 c 0,13.3 0,26.6 0,40 0,2.2 0,2.2 -2.3,2.2 -12.8,0 -25.6,0 -38.4,0 -1.3,0 -2,-0.2 -2,-1.7 0,-13.2 0,-26.3 0,-39.5 0,-0.3 0.1,-0.7 0.1,-1 14.2,0 28.4,0 42.6,0 z"
       id="path4"
       inkscape:connector-curvature="0"
       style="fill:#ffffff" /><path
       d="m 354.8,305.1 c -13.4,0 -26.7,0 -40.1,0 -1.7,0 -2.2,-0.5 -2.2,-2.2 0.1,-12.7 0.1,-25.5 0,-38.2 0,-1.7 0.5,-2.2 2.2,-2.2 13.4,0.1 26.7,0.1 40.1,0.1 0,14.1 0,28.3 0,42.5 z"
       id="path6"
       inkscape:connector-curvature="0"
       style="fill:#ffffff" /><path
       d="m 201.4,160.6 c 0,13.3 0,26.5 0,39.8 0,2.4 0,2.4 -2.4,2.4 -12.5,0 -25,0 -37.5,0 -2.2,0 -2.2,0 -2.2,-2.3 0,-13.3 0,-26.6 0,-39.9 14,0 28.1,0 42.1,0 z"
       id="path8"
       inkscape:connector-curvature="0"
       style="fill:#ffffff" /><path
       d="m 354.8,253.6 c -0.5,0 -1,0.1 -1.5,0.1 -12.9,0 -25.7,0 -38.6,0 -1.6,0 -2.1,-0.5 -2.1,-2.1 0.1,-12.7 0,-25.4 0,-38.1 0,-1.4 0.2,-2.2 1.9,-2.2 13.4,0.1 26.9,0 40.3,0.1 0,14.1 0,28.1 0,42.2 z"
       id="path10"
       inkscape:connector-curvature="0"
       style="fill:#ffffff" /><path
       d="m 354.8,355.5 c -13.4,0 -26.9,0 -40.3,0 -1.8,0 -2.2,-0.5 -2.2,-2.2 0.1,-12.5 0.1,-25 0,-37.5 0,-1.7 0.4,-2.3 2.2,-2.2 13.4,0.1 26.8,0.1 40.3,0.1 0,13.9 0,27.8 0,41.8 z"
       id="path12"
       inkscape:connector-curvature="0"
       style="fill:#ffffff" /><path
       d="m 303.7,160.6 c 0,13.4 0,26.7 0,40.1 0,1.4 -0.5,1.9 -1.9,1.9 -12.9,0 -25.7,0 -38.6,0 -1.1,0 -1.9,-0.1 -1.9,-1.5 0,-13.4 0.1,-26.9 0.1,-40.3 0,-0.1 0,-0.1 0,-0.2 14.1,0 28.2,0 42.3,0 z"
       id="path14"
       inkscape:connector-curvature="0"
       style="fill:#ffffff" /><path
       d="m 159.2,232.6 c 0,-6.5 0,-12.9 0,-19.4 0,-1.5 0.4,-2 1.9,-2 12.8,0.1 25.6,0 38.4,0 1.4,0 1.9,0.5 1.9,1.9 0,13 0,26 0,38.9 0,1.4 -0.4,1.9 -1.8,1.9 -12.9,0 -25.7,0 -38.6,0 -1.4,0 -1.8,-0.4 -1.8,-1.8 0.1,-6.4 0,-12.9 0,-19.5 z"
       id="path16"
       inkscape:connector-curvature="0"
       style="fill:#ffffff" /><path
       d="m 252.3,232.6 c 0,6.3 0,12.7 0,19 0,1.5 -0.4,2.1 -2,2.1 -12.8,-0.1 -25.6,-0.1 -38.4,0 -1.5,0 -2,-0.4 -2,-2 0.1,-12.8 0,-25.6 0,-38.4 0,-1.4 0.4,-2 1.9,-2 12.9,0 25.7,0 38.6,0 1.4,0 1.9,0.5 1.9,1.9 0,6.5 0,12.9 0,19.4 z"
       id="path18"
       inkscape:connector-curvature="0"
       style="fill:#ffffff" /><path
       d="m 282.4,355.5 c -6.5,0 -12.9,0 -19.4,0 -1.5,0 -2,-0.4 -2,-1.9 0.1,-12.7 0.1,-25.4 0,-38 0,-1.6 0.5,-2 2.1,-2 12.9,0 25.7,0.1 38.6,0 1.7,0 2.1,0.6 2.1,2.2 -0.1,12.6 0,25.1 0,37.7 0,1.5 -0.4,2.1 -2,2.1 -6.5,-0.1 -12.9,-0.1 -19.4,-0.1 z"
       id="path20"
       inkscape:connector-curvature="0"
       style="fill:#ffffff" /><path
       d="m 282.6,262.8 c 6.3,0 12.7,0 19,0 1.5,0 2.1,0.4 2.1,2 -0.1,12.7 -0.1,25.4 0,38.1 0,1.6 -0.5,2 -2.1,2 -12.7,0 -25.5,0 -38.2,0 -1.5,0 -2.1,-0.4 -2.1,-2 0.1,-12.7 0.1,-25.4 0,-38.1 0,-1.6 0.6,-2 2.1,-2 6.4,0 12.8,0 19.2,0 z"
       id="path22"
       inkscape:connector-curvature="0"
       style="fill:#ffffff" /><path
       d="m 180.2,262.8 c 6.3,0 12.6,0 18.9,0 1.5,0 2.1,0.4 2.1,2 -0.1,12.7 -0.1,25.4 0,38.1 0,1.6 -0.6,2 -2.1,2 -12.6,0 -25.3,0 -37.9,0 -1.5,0 -2,-0.4 -2,-1.9 0.1,-12.7 0.1,-25.5 0,-38.2 0,-1.5 0.5,-1.9 2,-1.9 6.3,-0.1 12.7,-0.1 19,-0.1 z"
       id="path24"
       inkscape:connector-curvature="0"
       style="fill:#ffffff" /><path
       d="m 230.9,355.5 c -6.3,0 -12.7,0 -19,0 -1.5,0 -2,-0.4 -1.9,-1.9 0.1,-12.6 0.1,-25.1 0,-37.7 0,-1.6 0.6,-2 2.1,-2 12.7,0 25.5,0 38.2,0 1.6,0 2.1,0.5 2.1,2.1 0,12.5 0,25 0,37.6 0,1.5 -0.4,2.1 -2,2.1 -6.6,-0.2 -13,-0.2 -19.5,-0.2 z"
       id="path26"
       inkscape:connector-curvature="0"
       style="fill:#ffffff" /></g></svg>